# xmcd CD database file
#
# Track frame offsets:
#	150
#	19749
#	38733
#	58756
#	75568
#	91650
#	111969
#	128670
#	168277
#	194623
#	223555
#	259900
#
# Disc length: 3556 seconds
#
# Revision: 1
# Processed by: cddbd v1.5.1PL2 Copyright (c) Steve Scherf et al.
# Submitted via: CDex 1.51
#
DISCID=9c0de20c
DTITLE=Leftover Salmon - Leftover Salmon
DYEAR=2004
DGENRE=Country
TTITLE0=Down in the hollow
TTITLE1=Mountain Top
TTITLE2=Delta Queen
TTITLE3=Linclon at Nevada
TTITLE4=Woody Guthrie
TTITLE5=Fayetteville Line
TTITLE6=Everything is Round
TTITLE7=Whispering Waters
TTITLE8=Last Days of Autumn
TTITLE9=Just keep Walkin
TTITLE10=Weary Traveler
TTITLE11=Data
EXTD=YEAR: 2004
EXTT0=
EXTT1=
EXTT2=
EXTT3=
EXTT4=
EXTT5=
EXTT6=
EXTT7=
EXTT8=
EXTT9=
EXTT10=
EXTT11=
PLAYORDER=
